<?xml version="1.0" standalone="no"?>
<!DOCTYPE svg PUBLIC "-//W3C//DTD SVG 20010904//EN"
 "http://www.w3.org/TR/2001/REC-SVG-20010904/DTD/svg10.dtd">
<svg version="1.0" xmlns="http://www.w3.org/2000/svg"
 width="631.000000pt" height="286.000000pt" viewBox="0 0 631.000000 286.000000"
 preserveAspectRatio="xMidYMid meet">

<g transform="translate(0.000000,286.000000) scale(0.100000,-0.100000)"
fill="#000000" stroke="none">
<path d="M1190 2694 c-84 -15 -157 -51 -216 -106 -34 -32 -66 -58 -72 -58 -6
0 -33 -18 -60 -40 -37 -29 -69 -43 -119 -55 -137 -31 -206 -79 -321 -224 -37
-45 -58 -54 -41 -17 8 16 17 22 27 19 12 -5 13 1 8 33 -3 21 -6 49 -6 62 0 12
-5 22 -10 22 -24 0 -90 -54 -105 -86 -15 -32 -15 -36 10 -89 20 -45 30 -57 55
-61 l30 -6 0 -94 0 -94 -40 -44 c-56 -60 -53 -102 9 -169 31 -34 72 -57 101
-57 17 0 19 -3 10 -19 -27 -51 -4 -81 83 -106 122 -35 177 -20 177 49 0 17 9
45 20 61 11 17 20 40 20 53 0 19 5 22 41 22 38 0 39 -1 24 -17 -23 -23 -14
-62 31 -129 41 -62 59 -74 107 -74 28 0 44 9 85 52 l50 52 101 -3 c96 -2 100
-1 116 22 13 21 14 37 6 108 -5 46 -17 101 -25 121 -25 58 -19 63 25 23 38
-34 46 -37 86 -32 49 5 88 35 108 82 12 27 16 29 59 26 63 -4 149 23 191 60
19 17 47 56 62 87 26 52 28 67 28 167 -1 230 -72 325 -166 223 -38 -41 -40
-42 -52 -23 -33 54 -214 205 -282 235 -43 20 -115 31 -155 24z m145 -53 c40
-18 154 -111 138 -111 -4 0 10 -9 33 -19 23 -10 51 -32 62 -49 27 -37 27 -42
4 -42 -10 0 -27 -7 -38 -15 -19 -14 -19 -15 4 -21 24 -7 29 -20 10 -27 -7 -3
-1 -6 14 -6 38 -1 46 -21 8 -21 -32 0 -80 -37 -80 -62 0 -7 6 -4 12 7 12 20
28 35 40 35 3 0 2 -16 -3 -36 -6 -19 -8 -41 -6 -47 2 -7 7 2 11 19 7 33 41 72
52 61 4 -3 6 -30 6 -59 0 -38 2 -47 8 -33 5 11 9 53 9 93 1 69 2 73 29 84 15
6 41 27 59 47 26 29 36 34 49 25 24 -14 43 -74 56 -170 18 -138 -28 -261 -117
-311 -66 -38 -196 -28 -319 23 -14 5 -17 4 -12 -5 4 -6 2 -34 -4 -62 -14 -55
-4 -79 33 -79 20 0 77 51 77 70 0 5 4 10 9 10 17 0 -10 -59 -36 -80 -39 -31
-74 -25 -124 19 -41 35 -148 95 -157 86 -2 -2 12 -14 32 -27 43 -28 45 -44 12
-137 -31 -88 -76 -157 -129 -198 -23 -17 -59 -48 -80 -67 -20 -20 -43 -36 -50
-36 -25 0 -107 105 -107 137 0 15 77 66 88 59 4 -2 8 13 8 35 1 21 -2 36 -7
33 -5 -3 -9 -11 -9 -19 0 -17 -92 -30 -148 -20 -31 5 -42 12 -45 28 -2 12 -5
-3 -6 -33 -1 -36 -8 -67 -22 -89 -12 -19 -23 -48 -25 -65 -2 -16 -8 -34 -13
-39 -13 -13 -136 11 -162 32 -19 15 -19 18 -4 77 l16 62 -40 73 c-104 193 -92
373 33 507 55 59 122 97 205 116 l61 14 -51 -61 c-61 -73 -112 -173 -102 -202
3 -11 21 -42 39 -70 30 -44 33 -55 28 -96 -6 -46 -6 -48 36 -78 59 -43 100
-41 198 8 42 21 92 42 110 46 23 5 36 15 44 33 13 35 13 164 -1 222 -6 25 -11
65 -11 90 0 33 -3 41 -10 30 -13 -20 -12 -74 1 -179 15 -117 2 -159 -57 -176
-23 -7 -66 -26 -97 -44 -73 -41 -123 -42 -161 -2 -34 36 -31 56 20 145 l34 61
-38 -43 -38 -43 -33 47 c-40 55 -41 78 -8 139 30 52 190 236 224 255 12 7 50
18 85 25 54 11 58 13 25 14 -37 1 -37 1 -22 25 22 34 58 55 135 83 80 28 160
29 215 4z m-992 -398 c-3 -21 -10 -46 -15 -57 -16 -29 14 -53 47 -38 24 11 25
11 15 -8 -6 -12 -21 -20 -35 -20 -19 0 -29 10 -45 42 -25 52 -25 53 1 89 28
39 39 36 32 -8z m130 -560 c-16 -41 -120 17 -142 77 -9 28 -7 34 26 70 l35 40
43 -87 c24 -48 41 -93 38 -100z m798 7 l4 -85 -59 -3 c-32 -2 -63 1 -68 6 -5
5 6 30 26 61 20 28 43 77 53 108 l17 56 12 -29 c7 -16 13 -67 15 -114z"/>
<path d="M985 2461 c-63 -8 -68 -11 -93 -65 -35 -74 -36 -105 -1 -36 33 65 33
65 37 31 l3 -33 20 40 c15 30 28 42 50 47 16 4 31 11 34 16 4 5 5 8 3 8 -2 -1
-25 -5 -53 -8z"/>
<path d="M1216 2441 c-10 -11 -16 -26 -14 -34 2 -9 11 -2 25 19 24 37 17 46
-11 15z"/>
<path d="M1720 2415 c-13 -14 -38 -29 -54 -34 l-31 -9 31 -1 c29 -1 57 20 78
57 11 19 2 14 -24 -13z"/>
<path d="M1296 2349 c-14 -11 -31 -30 -38 -42 -10 -20 -10 -21 5 -8 15 12 17
11 17 -5 0 -17 1 -17 13 1 8 10 19 15 26 11 9 -6 9 -12 -2 -24 -32 -39 -26
-41 18 -8 25 20 51 36 56 36 5 0 1 10 -11 22 -11 12 -20 25 -20 30 0 15 -37 8
-64 -13z"/>
<path d="M1350 2043 c-19 -7 -30 -24 -29 -43 0 -10 4 -7 11 6 5 12 20 27 32
32 22 11 12 15 -14 5z"/>
<path d="M929 2673 c-13 -16 -12 -17 4 -4 9 7 17 15 17 17 0 8 -8 3 -21 -13z"/>
<path d="M962 2674 c-12 -8 -29 -30 -38 -47 -16 -32 -16 -32 16 5 17 21 39 42
48 48 9 5 12 10 7 10 -6 0 -21 -7 -33 -16z"/>
<path d="M250 2305 c-7 -8 -16 -13 -20 -10 -12 7 -33 -22 -27 -37 4 -8 6 -7 6
4 1 9 5 19 10 23 6 3 8 -10 6 -32 -3 -21 -2 -29 1 -18 4 11 15 33 26 48 21 30
20 48 -2 22z"/>
<path d="M5415 1746 c-119 -31 -196 -90 -236 -179 -22 -48 -24 -65 -24 -222 0
-157 2 -174 24 -222 30 -67 82 -114 157 -143 50 -19 87 -24 249 -30 201 -7
226 -13 272 -62 35 -38 43 -73 43 -194 0 -95 -3 -121 -20 -154 -25 -48 -77
-85 -145 -101 -53 -13 -370 -15 -507 -3 l-78 6 0 -60 c0 -72 -13 -66 187 -83
176 -14 419 -7 488 15 107 33 182 105 211 202 20 68 19 308 -2 370 -22 65 -59
118 -104 149 -71 49 -112 58 -310 65 -197 7 -234 15 -277 61 -35 38 -43 74
-43 187 0 122 16 170 69 215 53 44 99 52 301 51 102 0 215 -3 253 -7 l67 -8 0
60 c0 60 0 60 -32 66 -181 31 -465 42 -543 21z"/>
<path d="M1390 1025 l0 -725 80 0 80 0 2 317 3 318 360 0 360 0 3 -317 2 -318
75 0 75 0 0 725 0 725 -75 0 -75 0 0 -335 0 -335 -365 0 -365 0 0 335 0 335
-80 0 -80 0 0 -725z"/>
<path d="M2740 1025 l0 -726 348 3 347 3 58 27 c196 92 297 326 297 693 0 435
-120 668 -369 715 -29 5 -195 10 -367 10 l-314 0 0 -725z m698 556 c138 -62
194 -219 195 -541 0 -91 -5 -196 -12 -233 -29 -166 -88 -278 -175 -332 l-49
-30 -249 -3 -248 -3 0 586 0 586 243 -3 c230 -3 245 -4 295 -27z"/>
<path d="M4255 1737 c-90 -30 -140 -72 -172 -142 -17 -37 -18 -88 -21 -667
l-3 -628 81 0 80 0 0 310 0 310 203 0 c112 0 259 3 325 7 l122 6 0 59 0 58
-248 0 c-137 0 -283 3 -325 6 l-77 7 0 217 c0 209 1 218 23 250 12 18 35 43
50 54 27 20 42 21 343 24 l314 3 0 58 0 59 -62 6 c-35 3 -182 8 -328 11 -205
4 -274 2 -305 -8z"/>
</g>
</svg>
